# xmcd CD database file
# Generated: Wed Oct 20 19:34:13 2004 by KSCD
# 
# Track frame offsets:
#       150
#       15452
#       29954
#       44790
#       56561
#       70313
#       86851
#       104500
#       122421
#       139298
#       153748
#       173033
#       189708
#       208701
#       221236
#       238834
#       259298
#       291990
#       304974
#       316955
#       327284
#       344790
#
# Disc length: 4745 seconds
#
# Revision: 2
# Processed by: cddbd v1.5.1PL0 Copyright (c) Steve Scherf et al.
# Submitted via: Kscd 1.3.3
#
DISCID=71128716
DTITLE=Various Artist - Ass't
DYEAR=1900
DGENRE=
TTITLE0=I Wish I Was In Heaven Sitting
TTITLE1=It's Nobody's Fault But Mine
TTITLE2=Soulful Wind
TTITLE3=I'd Rather Go Blind
TTITLE4=Ain't No Bluesman
TTITLE5=Candy Man
TTITLE6=Gee The Mule
TTITLE7=If I Had Possession Over Judge
TTITLE8=If You Love Somebody
TTITLE9=Jelly Bone Jelly
TTITLE10=Let Me Stay Tonight
TTITLE11=Run Sinner Run
TTITLE12=Sugarbelle Blue
TTITLE13=You Don't Know My Mind
TTITLE14=St. James Infirmary
TTITLE15=What Would You Give
TTITLE16=Mercy
TTITLE17=Travelin' Light
TTITLE18=There Was A Time That I Was Bl
TTITLE19=Angel Band
TTITLE20=Acoustic Blues
TTITLE21=Lord, Send Me an Angel
EXTD=
EXTT0=
EXTT1=
EXTT2=
EXTT3=
EXTT4=
EXTT5=
EXTT6=
EXTT7=
EXTT8=
EXTT9=
EXTT10=
EXTT11=
EXTT12=
EXTT13=
EXTT14=
EXTT15=
EXTT16=
EXTT17=
EXTT18=
EXTT19=
EXTT20=
EXTT21=
PLAYORDER=
